<svg xmlns="http://www.w3.org/2000/svg" aria-hidden="true" style="position:absolute;width:0;height:0;overflow:hidden"><defs><symbol id="icon-icon-send" viewBox="0 0 32 32"><path d="M32 0 0 18l10.227 3.788L26 7 14.002 23.186l.01.004-.012-.004V32l5.735-6.691L27 28l5-28z"/></symbol><symbol id="icon-Vector-2" viewBox="0 0 32 32"><path d="m27.419 20.852-4.201-.48a3.293 3.293 0 0 0-2.713.943l-3.044 3.044A24.888 24.888 0 0 1 6.56 13.458l3.06-3.06a3.293 3.293 0 0 0 .943-2.713l-.48-4.168A3.31 3.31 0 0 0 6.791.589H3.929C2.06.589.505 2.144.621 4.013c.877 14.126 12.174 25.407 26.284 26.284 1.869.116 3.424-1.439 3.424-3.308v-2.862c.016-1.671-1.241-3.077-2.911-3.275z"/></symbol><symbol id="icon-Vector-3" viewBox="0 0 32 32"><path d="M28 4H4a2.996 2.996 0 0 0-2.985 3L1 25c0 1.65 1.35 3 3 3h24c1.65 0 3-1.35 3-3V7c0-1.65-1.35-3-3-3zm-.6 6.375-10.605 6.63c-.48.3-1.11.3-1.59 0L4.6 10.375c-.375-.24-.6-.645-.6-1.08C4 8.29 5.095 7.69 5.95 8.215L16 14.5l10.05-6.285c.855-.525 1.95.075 1.95 1.08 0 .435-.225.84-.6 1.08z"/></symbol><symbol id="icon-Vector" viewBox="0 0 32 32"><path d="M16 16c4.42 0 8-3.58 8-8s-3.58-8-8-8-8 3.58-8 8 3.58 8 8 8zm0 4c-5.34 0-16 2.68-16 8v2c0 1.1.9 2 2 2h28c1.1 0 2-.9 2-2v-2c0-5.32-10.66-8-16-8z"/></symbol><symbol id="icon-checkmark" viewBox="0 0 32 32"><path d="M27 4 12 19l-7-7-5 5 12 12L32 9z"/></symbol>
<symbol id="icon-close-black-18dp-2-1" viewBox="0 0 32 32"><path d="m26.667 7.303-1.97-1.97-7.808 7.808-7.808-7.808-1.97 1.97 7.808 7.808-7.808 7.808 1.97 1.97 7.808-7.808 7.808 7.808 1.97-1.97-7.808-7.808 7.808-7.808z"/></symbol><symbol id="icon-antenna-1" viewBox="0 0 32 32"><path fill="#212121" d="m30.773 22.098-8.443-8.505.937-4.615c.242.094.499.144.758.146h.006a2.159 2.159 0 1 0-2.008-1.435l-4.96.605L8.972.161a.534.534 0 0 0-.377-.16.532.532 0 0 0-.373.155L6.709 1.66a.534.534 0 0 0 0 .754l.814.826a14.943 14.943 0 0 0 2.519 17.663.513.513 0 0 0 .146.098c-.034.18-.051.364-.052.547v6.187h-6.4a2.67 2.67 0 0 0-2.667 2.667v1.067c0 .295.239.533.533.533h24.533a.533.533 0 0 0 .533-.533v-1.067a2.67 2.67 0 0 0-2.667-2.667h-6.4v-2.742a15.09 15.09 0 0 0 3.049.32 14.854 14.854 0 0 0 7.04-1.783l.818.823a.534.534 0 0 0 .377.16.532.532 0 0 0 .373-.155l1.513-1.504a.534.534 0 0 0 0-.754zM23.28 6.233a1.066 1.066 0 1 1 .752 1.822h-.003a1.067 1.067 0 0 1-.747-1.823h-.002zm-1.256 3.505-.598 2.946-1.175-1.182 1.774-1.763zm-.605-.902-1.92 1.909-1.485-1.493 3.405-.415zM24.004 28.8a1.6 1.6 0 0 1 1.6 1.6v.533H2.137V30.4a1.6 1.6 0 0 1 1.6-1.6h20.267zm-7.467-2.133v1.067h-5.333v-1.067h5.333zM11.204 25.6v-4.053c0-1.294 1.196-2.347 2.667-2.347s2.667 1.053 2.667 2.347V25.6h-5.333zm6.4-1.696v-2.357c0-1.882-1.675-3.413-3.733-3.413a3.8 3.8 0 0 0-3.281 1.786A13.87 13.87 0 0 1 8.311 4.033l18.602 18.708a13.818 13.818 0 0 1-9.309 1.163zm11.289-.684L7.836 2.039l.755-.752 7.935 7.98c.004 0 .006.007.01.01l13.115 13.191-.757.752z" style="fill:var(--color1, #212121)"/><path fill="#2196f3" d="M13.876 20.267h-.005a1.6 1.6 0 1 0-.004 3.2h.005a1.6 1.6 0 1 0 .004-3.2zm.373 1.978a.534.534 0 0 1-.752-.756.534.534 0 0 1 .373-.155.532.532 0 0 1 .373.911h.005z" style="fill:var(--color2, #2196f3)"/></symbol><symbol id="icon-astronaut-1" viewBox="0 0 32 32"><path fill="#2196f3" d="M31.974 4.524a.534.534 0 0 0-.43-.363l-1.91-.278-.855-1.731c-.179-.365-.777-.365-.956 0l-.855 1.731-1.91.278a.535.535 0 0 0-.296.91l1.383 1.348-.326 1.903c-.034.2.048.402.212.522a.53.53 0 0 0 .562.04l1.709-.899 1.709.899a.536.536 0 0 0 .775-.563l-.326-1.903 1.383-1.348a.536.536 0 0 0 .135-.547zm-2.463 1.327a.534.534 0 0 0-.153.472l.191 1.114-1-.526a.533.533 0 0 0-.498 0l-1.001.526.191-1.114a.534.534 0 0 0-.153-.472l-.81-.789 1.119-.163a.532.532 0 0 0 .402-.292l.5-1.013.5 1.013a.535.535 0 0 0 .402.292l1.119.163-.809.789zM26.134 20.522h-1.067v1.067h1.067v-1.067zM26.134 22.656h-1.067v1.067h1.067v-1.067zM27.2 21.589h-1.067v1.067H27.2v-1.067zM25.067 21.589H24v1.067h1.067v-1.067zM22.4 26.389h-1.067v1.067H22.4v-1.067zM22.4 28.522h-1.067v1.067H22.4v-1.067zM23.467 27.456H22.4v1.067h1.067v-1.067zM21.333 27.456h-1.067v1.067h1.067v-1.067zM16 24.256h-1.067v1.067H16v-1.067zM16 26.389h-1.067v1.067H16v-1.067zM17.067 25.322H16v1.067h1.067v-1.067zM14.933 25.322h-1.067v1.067h1.067v-1.067zM5.867 6.122H4.8v1.067h1.067V6.122zM5.867 8.255H4.8v1.067h1.067V8.255z" style="fill:var(--color2, #2196f3)"/><path fill="#2196f3" d="M6.933 7.189H5.866v1.067h1.067V7.189zM4.8 7.189H3.733v1.067H4.8V7.189z" style="fill:var(--color2, #2196f3)"/><path fill="#212121" d="M24.715 14.159a1.775 1.775 0 0 0-1.188-.705 1.778 1.778 0 0 0-1.34.352l-1.252.96-1.898 1.417-1.358-.541c2.421-1.086 4.114-3.508 4.114-6.32 0-3.823-3.123-6.933-6.961-6.933s-6.961 3.11-6.961 6.933a6.86 6.86 0 0 0 1.12 3.758l-2.764-.024h-.005c-.009 0-.015.004-.023.005a.515.515 0 0 0-.155.031l-.038.013c-.006.003-.013.003-.019.006l-3.233 1.596-.001.001-1.893.911a.397.397 0 0 0-.063.035 1.779 1.779 0 0 0-.598 2.295c.22.429.595.745 1.056.889a1.776 1.776 0 0 0 1.378-.128l1.388-.738 2.264-1.169 1.357-.008L2.2 22.211l-.002.001-1.339 1.333c-.316.315-.49.732-.49 1.178s.174.863.49 1.179c.325.323.752.485 1.179.485s.854-.162 1.18-.485l1.314-1.309 1.741-1.3.901.897-1.762 1.754-.002.001-1.339 1.333c-.316.315-.49.732-.49 1.178s.174.863.49 1.179c.325.323.753.485 1.18.485s.855-.162 1.18-.485l3.482-3.467.001-.002 1.01-1-.004-.004c.006-.006.015-.009.022-.015l5.166-5.658 3.471.494a.52.52 0 0 0 .262-.033c.018-.006.033-.015.05-.023.019-.01.039-.015.058-.027l3.213-2.133c.012-.008.018-.021.029-.029.013-.01.029-.014.041-.026l1.271-1.191c.662-.62.753-1.635.212-2.362zM2.13 17.77a.714.714 0 0 1-.558.052.717.717 0 0 1-.213-1.26l1.314-.632.449 1.313-.992.527zm3.498-1.828-1.548.8-.439-1.283 2.027-1.001-.04 1.484zm15.099-6.62a5.79 5.79 0 0 1-.599 2.559l-4.181-1.899a1.863 1.863 0 0 0-.788-1.388l1.464-4.86c2.378.756 4.105 2.974 4.105 5.588zm-11.789 0c0-3.235 2.644-5.867 5.894-5.867.253 0 .5.021.745.052l-1.432 4.754c-.019-.001-.037-.006-.057-.006-1.033 0-1.873.837-1.873 1.867s.84 1.867 1.873 1.867c.694 0 1.294-.383 1.618-.945l3.862 1.755a5.894 5.894 0 0 1-4.737 2.39c-3.25 0-5.894-2.632-5.894-5.867zm5.956.8c0 .441-.362.8-.806.8s-.806-.359-.806-.8c0-.441.362-.8.806-.8s.806.359.806.8zM2.465 25.146a.608.608 0 0 1-.854.001.592.592 0 0 1 0-.844l.962-.959.851.848-.959.955zm3.214 3.734a.608.608 0 0 1-.855.001.592.592 0 0 1 0-.844l.963-.959.852.848-.96.955zm3.481-3.469-.002.001-1.765 1.76-.852-.848 1.763-1.755.002-.001c.04-.04.065-.088.09-.135.007-.014.02-.026.026-.04.017-.041.019-.085.026-.129.003-.025.014-.047.014-.073 0-.036-.013-.07-.02-.106-.006-.032-.006-.065-.019-.095a.55.55 0 0 0-.091-.138c-.01-.012-.014-.027-.025-.038h-.001l-.001-.002-1.607-1.6c-.017-.017-.039-.024-.058-.038a.507.507 0 0 0-.087-.058.515.515 0 0 0-.093-.033.507.507 0 0 0-.103-.02.5.5 0 0 0-.095.005.53.53 0 0 0-.104.02.477.477 0 0 0-.094.045c-.02.011-.042.015-.061.029L4.23 23.486l-.901-.897 2.399-2.386 4.361 4.289-.928.919zm6.819-7.017c-.015-.002-.03.004-.045.003a.556.556 0 0 0-.3.075.492.492 0 0 0-.083.061c-.013.011-.028.017-.04.029l-4.698 5.146-4.328-4.257 2.833-2.818a.534.534 0 0 0-.379-.911v-.001l-2.219.013.028-1.607 3.104.027a6.947 6.947 0 0 0 4.981 2.101c.437 0 .864-.045 1.279-.123.04.032.079.065.13.085l2.41.96.152.758.178.885-3.003-.427zm4.041.178-.313-1.558 1.446-1.08.947 1.257-2.08 1.381zm3.754-2.831-.838.785-.931-1.236.831-.637a.735.735 0 0 1 .543-.143.718.718 0 0 1 .48.284.713.713 0 0 1-.085.947z" style="fill:var(--color1, #212121)"/><path fill="#212121" d="m13.602 18.544-2.143-2.133a.534.534 0 0 0-.753 0l-2.142 2.133a.537.537 0 0 0 0 .756l2.142 2.133a.536.536 0 0 0 .753 0l2.143-2.133a.535.535 0 0 0 0-.756zm-2.519 1.759-1.387-1.381 1.387-1.381 1.387 1.381-1.387 1.381zM17.164 5.071l-.258 1.036c.071.018 1.738.452 1.738 2.149h1.067c0-2.017-1.666-2.965-2.547-3.185zM19.711 9.322h-1.067v1.067h1.067V9.322z" style="fill:var(--color1, #212121)"/></symbol><symbol id="icon-clock-1" viewBox="0 0 32 32"><path fill="#212121" d="M31.297 15.301C31.295 6.849 24.442-.002 15.989 0S.686 6.855.688 15.308a15.304 15.304 0 0 0 10.649 14.576.662.662 0 0 0 .529-.065.637.637 0 0 0 .283-.356l3.865-12.25a1.912 1.912 0 1 0-.84-3.635l-5.106-5.107a.637.637 0 0 0-.902.902l5.103 5.109a1.876 1.876 0 0 0 .536 2.309l-3.683 11.673C3.844 25.783.118 17.71 2.799 10.432S13.553-.572 20.831 2.109s11.004 10.754 8.323 18.032a14.042 14.042 0 0 1-7.462 7.973l-.398-1.874a.638.638 0 0 0-1.048-.344l-3.837 3.426a.637.637 0 0 0 .231 1.084l4.899 1.563a.638.638 0 0 0 .819-.74l-.391-1.839a15.255 15.255 0 0 0 9.329-14.089zm-15.305-.637a.638.638 0 1 1 0 1.277.638.638 0 0 1 0-1.277zm2.101 14.864 2.184-1.948.603 2.84-2.787-.892z" style="fill:var(--color1, #212121)"/><path fill="#2196f3" d="M15.354 3.185V4.46a.638.638 0 1 0 1.276 0V3.185a.638.638 0 0 0-1.276 0zM3.876 14.664a.638.638 0 0 0 0 1.276h1.275a.638.638 0 1 0 0-1.276H3.876zM28.108 15.939a.638.638 0 1 0 0-1.276h-1.275a.638.638 0 0 0 0 1.276h1.275z" style="fill:var(--color2, #2196f3)"/></symbol><symbol id="icon-diagram-1" viewBox="0 0 32 32"><path fill="#2196f3" d="M14.926 14.965h1.066v4.798h-1.066v-4.797zM19.19 17.097h1.066v2.665H19.19v-2.665zM10.661 18.696h1.066v1.066h-1.066v-1.066zM7.463 18.163h1.066v1.599H7.463v-1.599z" style="fill:var(--color2, #2196f3)"/><path fill="#212121" d="M1.599 28.291h25.587a1.6 1.6 0 0 0 1.599-1.599V24.56a1.6 1.6 0 0 0-1.599-1.599h-.533V9.668L29.681 6.8a1.608 1.608 0 1 0-.746-.763L26.654 8.2V6.97a1.6 1.6 0 0 0-1.599-1.599H3.733A1.6 1.6 0 0 0 2.134 6.97v15.992h-.533a1.6 1.6 0 0 0-1.599 1.599v2.132a1.6 1.6 0 0 0 1.599 1.599zM30.384 4.837a.533.533 0 1 1 0 1.067.533.533 0 0 1 0-1.067zM3.198 6.969c0-.294.239-.533.533-.533h21.322c.294 0 .533.239.533.533v2.239l-1.066 1.013V8.035a.533.533 0 0 0-.533-.533H4.797a.533.533 0 0 0-.533.533v13.326c0 .294.239.533.533.533h19.19a.533.533 0 0 0 .533-.533v-9.674l1.066-1.01v12.284H3.198V6.969zm4.798 6.93a1.598 1.598 0 1 0 1.107 2.749l1.853.93a.532.532 0 0 0 .636-.123l3.939-4.431 3.872 2.901a.533.533 0 0 0 .686-.039l3.365-3.188v8.131H5.33V8.569h18.124v2.66l-3.771 3.572-3.904-2.927a.533.533 0 0 0-.718.072l-3.993 4.493-1.493-.746c.011-.064.018-.129.02-.193a1.6 1.6 0 0 0-1.599-1.599zm.533 1.599a.533.533 0 1 1-1.067 0 .533.533 0 0 1 1.067 0zm3.198 8.528h5.331v.533a.533.533 0 0 1-.533.533h-4.264a.533.533 0 0 1-.533-.533v-.533zm-10.661.534c0-.294.239-.533.533-.533h9.062v.533a1.6 1.6 0 0 0 1.599 1.599h4.264a1.6 1.6 0 0 0 1.599-1.599v-.533h9.062c.294 0 .533.239.533.533v2.132a.533.533 0 0 1-.533.533H1.598a.533.533 0 0 1-.533-.533V24.56z" style="fill:var(--color1, #212121)"/></symbol><symbol id="icon-envelope" viewBox="0 0 43 32"><path d="M38.667 0H4C1.794 0 0 1.794 0 4v24c0 2.206 1.794 4 4 4h34.667c2.206 0 4-1.794 4-4V4c0-2.206-1.794-4-4-4zm0 2.667c.181 0 .353.038.511.103L21.334 18.236 3.49 2.77a1.32 1.32 0 0 1 .511-.103h34.667zm0 26.666H4A1.334 1.334 0 0 1 2.667 28V5.587L20.46 21.008a1.335 1.335 0 0 0 1.748 0L40.001 5.587V28c0 .736-.598 1.333-1.333 1.333z"/></symbol><symbol id="icon-facebook-1" viewBox="0 0 32 32"><path d="M21.329 5.313h2.921V.225C23.746.156 22.013 0 19.994 0c-4.212 0-7.097 2.649-7.097 7.519V12H8.249v5.688h4.648V32h5.699V17.689h4.46l.708-5.688h-5.169V8.082c.001-1.644.444-2.769 2.735-2.769z"/></symbol><symbol id="icon-instagram-2" viewBox="0 0 32 32"><path d="M31.969 9.408c-.075-1.7-.35-2.869-.744-3.882a7.806 7.806 0 0 0-1.851-2.838A7.867 7.867 0 0 0 26.542.844C25.523.45 24.36.175 22.66.1 20.947.019 20.403 0 16.059 0s-4.888.019-6.595.094c-1.7.075-2.869.35-3.882.744a7.803 7.803 0 0 0-2.838 1.85A7.867 7.867 0 0 0 .9 5.52C.506 6.539.231 7.702.156 9.402c-.081 1.713-.1 2.257-.1 6.601s.019 4.888.094 6.595c.075 1.7.35 2.869.744 3.882a7.895 7.895 0 0 0 1.85 2.838 7.867 7.867 0 0 0 2.832 1.844c1.019.394 2.182.669 3.882.744 1.706.075 2.25.094 6.595.094s4.888-.019 6.595-.094c1.7-.075 2.869-.35 3.882-.744a8.184 8.184 0 0 0 4.682-4.682c.394-1.019.669-2.182.744-3.882.075-1.707.094-2.251.094-6.595s-.006-4.888-.081-6.595zm-2.882 13.065c-.069 1.563-.331 2.407-.55 2.969a5.31 5.31 0 0 1-3.038 3.038c-.563.219-1.413.481-2.969.55-1.688.075-2.194.094-6.464.094s-4.782-.019-6.464-.094c-1.563-.069-2.407-.331-2.969-.55a4.926 4.926 0 0 1-1.838-1.194 4.974 4.974 0 0 1-1.194-1.838c-.219-.563-.481-1.413-.55-2.969-.075-1.688-.094-2.194-.094-6.464s.019-4.782.094-6.464c.069-1.563.331-2.407.55-2.969a4.868 4.868 0 0 1 1.2-1.838A4.974 4.974 0 0 1 6.639 3.55c.563-.219 1.413-.481 2.969-.55 1.688-.075 2.194-.094 6.464-.094 4.276 0 4.782.019 6.464.094 1.563.069 2.407.331 2.969.55a4.914 4.914 0 0 1 1.838 1.194 4.974 4.974 0 0 1 1.194 1.838c.219.563.481 1.413.55 2.969.075 1.688.094 2.194.094 6.464s-.019 4.77-.094 6.458z"/><path d="M16.059 7.783c-4.538 0-8.22 3.682-8.22 8.22s3.682 8.22 8.22 8.22c4.539 0 8.22-3.682 8.22-8.22s-3.682-8.22-8.22-8.22zm0 13.552a5.333 5.333 0 0 1 0-10.664 5.333 5.333 0 0 1 0 10.664zM26.524 7.458a1.919 1.919 0 1 1-3.838 0 1.919 1.919 0 0 1 3.838 0z"/></symbol><symbol id="icon-linkedin-1" viewBox="0 0 32 32"><path d="M31.992 32v-.001H32V20.263c0-5.741-1.236-10.164-7.948-10.164-3.227 0-5.392 1.771-6.276 3.449h-.093v-2.913h-6.364v21.364h6.627V21.42c0-2.785.528-5.479 3.977-5.479 3.399 0 3.449 3.179 3.449 5.657v10.401h6.62zM.528 10.636h6.635V32H.528V10.636zM3.843 0C1.722 0 0 1.721 0 3.843s1.721 3.879 3.843 3.879c2.121 0 3.843-1.757 3.843-3.879A3.846 3.846 0 0 0 3.843 0z"/></symbol><symbol id="icon-Logo-2" viewBox="0 0 57 32"><path d="M14.27 23.859c.13.147.199.332.196.521.007.123-.017.247-.07.361s-.132.216-.233.297c-.252.175-.565.26-.881.24h-1.549v-3.302h1.517c.299-.018.596.059.84.219.098.075.176.17.227.277s.074.224.068.341a.725.725 0 0 1-.176.505.839.839 0 0 1-.462.258.897.897 0 0 1 .523.282zm-1.816-.499h.648a.653.653 0 0 0 .412-.11c.049-.04.087-.09.111-.146s.034-.116.028-.176c.005-.06-.005-.12-.029-.175s-.061-.106-.108-.147a.665.665 0 0 0-.425-.111h-.638v.866zm1.124 1.267c.052-.041.093-.093.12-.151s.038-.121.034-.184c.004-.064-.008-.127-.035-.186s-.069-.111-.121-.153a.714.714 0 0 0-.44-.119h-.68v.908h.689a.732.732 0 0 0 .435-.114zM17.371 25.278l-.844-1.291h-.317v1.291h-.726v-3.302h1.374c.346-.022.689.078.957.281.192.179.308.415.327.666s-.061.499-.224.7c-.17.178-.401.296-.655.336l.898 1.32h-.789zm-1.161-1.74h.594c.412 0 .618-.167.618-.5a.458.458 0 0 0-.151-.371.687.687 0 0 0-.467-.134h-.601l.007 1.005zM21.339 24.614h-1.446l-.255.665h-.761l1.328-3.265h.823l1.323 3.265h-.761l-.25-.665zm-.194-.5-.529-1.394-.529 1.394h1.057zM26.305 25.278h-.721l-1.616-2.245v2.245h-.719v-3.302h.719l1.616 2.258v-2.258h.721v3.302zM30.417 24.488a1.501 1.501 0 0 1-.652.582 2.282 2.282 0 0 1-1.013.208h-1.283v-3.302h1.283c.351-.008.698.061 1.013.203.276.127.503.328.652.576a1.78 1.78 0 0 1 0 1.732zm-.824-.079c.206-.219.319-.499.319-.788s-.113-.569-.319-.788a1.326 1.326 0 0 0-.902-.281h-.5v2.137h.5c.329.019.654-.082.902-.281zM21.79 3.609s9.301 3.215 9.103 7.867v7.869s-9.294-3.217-9.1-7.869l-.004-7.867zM39.179 17.503a13.494 13.494 0 0 1 5.909-1.994v-2.463c-2.444.862-4.517 2.426-5.909 4.457z"/><path d="M38.124 18.245c1.438-2.651 3.93-4.696 6.964-5.715V5.432s-13.245 4.58-12.965 11.205V27.84s.59-.205 1.519-.589c0-.358 0-.719.042-1.082.274-3.076 1.871-5.926 4.44-7.924z"/><path d="M36.864 22.407c.07-.777.225-1.546.463-2.294-1.599 1.725-2.568 3.866-2.77 6.122-.019.213-.03.426-.035.645a40.466 40.466 0 0 0 2.548-1.229 10.624 10.624 0 0 1-.206-3.244zM37.391 22.447a10.17 10.17 0 0 0 .164 2.938c3.619-1.983 7.685-5.046 7.528-8.748v-.323c-2.585.265-5.004 1.3-6.885 2.946a10.29 10.29 0 0 0-.807 3.188z"/></symbol><symbol id="icon-Logo" viewBox="0 0 57 32"><path d="M12.878 11.255h-.002c-1.279 0-2.316.921-2.316 2.058v.001c0 1.137 1.037 2.058 2.316 2.058h.002c1.279 0 2.316-.921 2.316-2.058v-.001c0-1.137-1.037-2.058-2.316-2.058zM29.971 10.597c-.004-1.579-.711-3.092-1.967-4.208s-2.958-1.745-4.735-1.749c-1.777.003-3.48.631-4.737 1.748s-1.964 2.63-1.968 4.209v8.706s13.405-1.327 13.406-8.704v-.001zM5.867 22.16c.003 1.098.496 2.151 1.369 2.928s2.058 1.215 3.294 1.218c1.236-.003 2.42-.441 3.294-1.218s1.366-1.829 1.37-2.927v-6.057s-9.327.924-9.327 6.056zm4.663 1.085c-.242 0-.478-.064-.678-.183s-.357-.289-.45-.487c-.092-.198-.117-.417-.069-.627s.163-.404.334-.556c.171-.152.388-.255.625-.297s.482-.02.706.062c.223.082.414.221.548.4s.206.388.206.603c.001.143-.031.284-.092.417s-.151.252-.264.353c-.114.101-.248.182-.397.236s-.308.083-.468.083v-.004zM19.956 22.647h-.9v.93h-.469v-2.275h1.481v.38h-1.012v.588h.9v.378zm2.253-.156c0 .224-.04.42-.119.589a.893.893 0 0 1-.847.528c-.189 0-.357-.045-.505-.136s-.262-.22-.344-.387a1.344 1.344 0 0 1-.123-.581v-.112c0-.224.04-.421.12-.591a.895.895 0 0 1 .848-.529c.189 0 .358.046.505.137a.888.888 0 0 1 .342.392c.081.17.122.366.122.589v.102zm-.475-.103c0-.238-.043-.42-.128-.544s-.207-.186-.366-.186a.416.416 0 0 0-.364.184c-.085.122-.129.301-.13.538v.111c0 .232.043.412.128.541s.208.192.369.192a.415.415 0 0 0 .363-.184c.084-.124.127-.304.128-.541v-.111zm1.996.592a.237.237 0 0 0-.094-.203 1.203 1.203 0 0 0-.337-.15 2.418 2.418 0 0 1-.386-.156c-.258-.14-.387-.328-.387-.564 0-.123.034-.232.103-.328a.688.688 0 0 1 .298-.227c.13-.054.276-.081.438-.081.163 0 .307.03.434.089a.662.662 0 0 1 .401.614h-.469c0-.104-.033-.185-.098-.242s-.158-.087-.277-.087a.426.426 0 0 0-.267.073.225.225 0 0 0-.095.191c0 .074.037.136.111.186.075.05.185.097.33.141.267.08.461.18.583.298s.183.267.183.444a.55.55 0 0 1-.223.464c-.149.111-.349.167-.602.167-.175 0-.334-.032-.478-.095-.144-.065-.254-.153-.33-.264s-.113-.241-.113-.388h.47c0 .251.15.377.45.377a.442.442 0 0 0 .261-.067.222.222 0 0 0 .094-.191zm2.501-1.298h-.697v1.895h-.469v-1.895h-.687v-.38h1.853v.38zm1.638.909h-.9v.609h1.056v.377H26.5v-2.275h1.522v.38h-1.053v.542h.9v.367zm1.273.153h-.373v.833H28.3v-2.275h.845c.269 0 .476.06.622.18s.219.289.219.508a.697.697 0 0 1-.102.389.689.689 0 0 1-.305.247l.492.93v.022h-.503l-.427-.833zm-.373-.379h.378c.118 0 .209-.03.273-.089a.321.321 0 0 0 .097-.248.343.343 0 0 0-.092-.253c-.06-.061-.154-.092-.28-.092h-.377v.683zm2.84.41v.802h-.469v-2.275h.887c.171 0 .321.031.45.094a.703.703 0 0 1 .405.659.655.655 0 0 1-.23.528c-.152.128-.363.192-.633.192h-.411zm0-.379h.419c.124 0 .218-.029.283-.088.066-.058.098-.142.098-.25 0-.111-.033-.202-.098-.27s-.156-.104-.272-.106h-.43v.714zm2.966.195h-.9v.609h1.056v.377h-1.525v-2.275h1.522v.38h-1.053v.542h.9v.367zm2.175-.909h-.697v1.895h-.469v-1.895h-.688v-.38h1.853v.38zm1.637.909h-.9v.609h1.056v.377h-1.525v-2.275h1.522v.38h-1.053v.542h.9v.367zm1.274.153h-.373v.833h-.469v-2.275h.845c.269 0 .476.06.622.18s.219.289.219.508a.697.697 0 0 1-.102.389.689.689 0 0 1-.305.247l.492.93v.022h-.503l-.427-.833zm-.374-.379h.378c.118 0 .209-.03.273-.089a.321.321 0 0 0 .097-.248.343.343 0 0 0-.092-.253c-.06-.061-.154-.092-.28-.092h-.377v.683zm2.755.615a.237.237 0 0 0-.094-.203 1.203 1.203 0 0 0-.337-.15 2.418 2.418 0 0 1-.386-.156c-.258-.14-.388-.328-.388-.564 0-.123.034-.232.103-.328a.688.688 0 0 1 .298-.227c.13-.054.276-.081.438-.081.163 0 .307.03.434.089a.675.675 0 0 1 .295.248.646.646 0 0 1 .106.366h-.469c0-.104-.033-.185-.098-.242s-.158-.087-.277-.087a.426.426 0 0 0-.267.073.225.225 0 0 0-.095.191c0 .074.037.136.111.186.075.05.185.097.33.141.267.08.461.18.583.298s.183.267.183.444a.548.548 0 0 1-.223.464c-.149.111-.349.167-.602.167-.175 0-.334-.032-.478-.095a.773.773 0 0 1-.33-.264.678.678 0 0 1-.112-.388h.47c0 .251.15.377.45.377a.442.442 0 0 0 .261-.067.222.222 0 0 0 .094-.191z"/></symbol><symbol id="icon-Object-2" viewBox="0 0 67 32"><path d="M33.724 15.224a2.095 2.095 0 0 1-.43-1.414v-2.05c0-.628.142-1.106.428-1.433s.775-.489 1.469-.488c.652 0 1.115.139 1.389.417.299.355.444.789.411 1.226v.482h-1.167v-.488a2.476 2.476 0 0 0-.034-.478.467.467 0 0 0-.167-.284.681.681 0 0 0-.423-.111.711.711 0 0 0-.444.117.544.544 0 0 0-.193.313 2.398 2.398 0 0 0-.046.507v2.488c-.018.24.033.48.15.699.058.074.139.132.233.169s.198.05.301.039a.632.632 0 0 0 .413-.113.505.505 0 0 0 .174-.302c.027-.165.039-.332.036-.498v-.505h1.167v.461c.033.456-.109.909-.403 1.289-.268.305-.725.457-1.396.457s-1.179-.163-1.466-.501zM38.583 15.245c-.295-.319-.442-.784-.442-1.4v-2.157c0-.609.147-1.07.442-1.383s.788-.469 1.478-.467c.686 0 1.177.156 1.471.467.295.313.444.774.444 1.383v2.157c0 .609-.15 1.076-.449 1.397s-.788.482-1.466.482c-.679 0-1.181-.163-1.478-.48zm2.022-.518c.106-.2.154-.419.14-.638v-2.641a1.17 1.17 0 0 0-.138-.626c-.059-.075-.142-.135-.238-.172s-.203-.05-.308-.037c-.105-.013-.212 0-.308.037s-.18.096-.24.172a1.15 1.15 0 0 0-.14.626v2.653c-.015.219.033.439.14.638.068.067.152.121.246.158a.82.82 0 0 0 .6 0 .732.732 0 0 0 .246-.158v-.012zM43.38 9.901h1.256l.945 3.979.966-3.979h1.222l.123 5.743h-.904l-.097-3.992-.932 3.992h-.725l-.966-4.006-.089 4.006h-.913l.114-5.743zM49.301 9.901h1.957c1.127 0 1.691.544 1.691 1.631 0 1.041-.593 1.561-1.78 1.56h-.667v2.553h-1.208l.007-5.743zm1.672 2.455c.119.013.24.004.355-.028s.22-.084.309-.154a.928.928 0 0 0 .174-.649 1.801 1.801 0 0 0-.058-.521c-.017-.057-.047-.111-.089-.158s-.093-.086-.153-.116a1.262 1.262 0 0 0-.539-.092h-.469v1.716h.469zM54.691 9.901h1.297l1.331 5.743h-1.126l-.263-1.324h-1.157l-.271 1.324h-1.143l1.331-5.743zm1.109 3.754-.452-2.411-.452 2.411h.903zM58.395 9.901h.846l1.619 3.276V9.901h1.003v5.743h-.804l-1.628-3.42v3.42h-1.036l.002-5.743zM64.209 13.455l-1.346-3.546h1.133l.821 2.277.771-2.277h1.109l-1.329 3.546v2.19h-1.16v-2.19zM35.589 18.156v.3h-.986v2.334h-.413v-2.334h-.99v-.3h2.389zM38.679 20.79h-.319a.139.139 0 0 1-.089-.025.133.133 0 0 1-.053-.06l-.285-.626h-1.367l-.285.626a.172.172 0 0 1-.044.071.152.152 0 0 1-.089.025h-.319l1.208-2.634h.42l1.222 2.624zm-2-.978h1.14l-.483-1.072a1.75 1.75 0 0 1-.089-.248c-.017.05-.031.098-.046.14l-.044.11-.478 1.07zM40.762 20.532c.076.003.151.003.227 0a1.72 1.72 0 0 0 .367-.079c.053-.019.106-.042.162-.065v-.592h-.483c-.012.001-.024-.001-.035-.005s-.021-.009-.03-.016a.062.062 0 0 1-.024-.048v-.202h.937v1.01a1.842 1.842 0 0 1-.51.215c-.099.025-.2.043-.302.054a3.775 3.775 0 0 1-.353.017 1.842 1.842 0 0 1-.609-.098 1.485 1.485 0 0 1-.483-.275 1.293 1.293 0 0 1-.312-.417 1.316 1.316 0 0 1-.111-.547 1.352 1.352 0 0 1 .109-.551c.069-.156.176-.298.312-.417.138-.119.302-.212.483-.273.207-.067.426-.1.647-.098.112 0 .225.008.336.023a1.65 1.65 0 0 1 .53.171c.074.041.144.087.21.138l-.116.163c-.009.015-.023.027-.039.036s-.036.014-.055.014a.16.16 0 0 1-.075-.021 1.582 1.582 0 0 1-.118-.063 1.02 1.02 0 0 0-.162-.071 1.508 1.508 0 0 0-.529-.081 1.407 1.407 0 0 0-.466.073 1.026 1.026 0 0 0-.355.209.918.918 0 0 0-.225.328 1.23 1.23 0 0 0 0 .878.938.938 0 0 0 .242.332c.099.09.219.162.353.209.154.046.316.063.478.052zM44.612 20.49h1.319v.3h-1.722v-2.634h.413l-.01 2.334zM47.304 20.79h-.413v-2.634h.413v2.634zM48.84 18.168a.189.189 0 0 1 .063.048l1.766 1.986a.737.737 0 0 1 0-.094v-1.962h.36v2.645h-.208a.19.19 0 0 1-.089-.015.23.23 0 0 1-.065-.05l-1.764-1.984v2.048h-.345v-2.634h.215c.023 0 .046.004.068.012zM54.07 18.156v.29h-1.464v.87h1.186v.279h-1.186v.899h1.464v.29h-1.889v-2.628h1.889zM10.782 1.888l18.343 4.497v15.757l-18.343-4.494V1.889zM9.605.545v17.867l20.694 5.074V5.621L9.605.545z"/><path d="M20.696 31.781 0 26.702V8.836l20.696 5.076V31.78z"/><path d="m9.948 1.686 18.104 4.44-7.699 6.649L2.247 8.333l7.702-6.647zM9.605.545 0 8.837l20.696 5.076 9.603-8.292L9.605.545zM21.861 30.776l8.438-7.287-8.438-2.071v9.358z"/></symbol><symbol id="icon-Object" viewBox="0 0 34 32"><path d="M5.643 31.315a.095.095 0 0 1 .064.025l.166.159a1.373 1.373 0 0 1-.467.302c-.21.076-.435.113-.663.108a1.767 1.767 0 0 1-.623-.101 1.37 1.37 0 0 1-.469-.285 1.277 1.277 0 0 1-.303-.44 1.472 1.472 0 0 1-.106-.565 1.31 1.31 0 0 1 .436-1.007c.142-.124.312-.222.499-.287.205-.069.422-.103.642-.101.204-.004.407.027.596.092.165.062.316.148.447.255l-.139.17a.173.173 0 0 1-.035.031.097.097 0 0 1-.056.013.136.136 0 0 1-.06-.018l-.075-.045-.104-.058a1.3 1.3 0 0 0-.139-.056 1.46 1.46 0 0 0-.436-.063 1.328 1.328 0 0 0-.461.076c-.136.048-.26.121-.361.213a.987.987 0 0 0-.235.339 1.155 1.155 0 0 0-.085.448 1.17 1.17 0 0 0 .085.455.994.994 0 0 0 .231.338.938.938 0 0 0 .345.209c.136.049.281.073.428.072.085.001.17-.004.253-.014a1.01 1.01 0 0 0 .548-.233.127.127 0 0 1 .079-.029zM10.441 30.517c.003.192-.035.382-.112.561-.068.163-.174.311-.313.436s-.306.222-.491.286a2.02 2.02 0 0 1-1.263 0 1.454 1.454 0 0 1-.488-.287 1.288 1.288 0 0 1-.316-.44 1.462 1.462 0 0 1 0-1.125c.071-.164.178-.314.316-.442.139-.12.305-.214.488-.276a1.992 1.992 0 0 1 1.263 0c.185.065.351.163.49.287.137.125.243.273.314.435.077.181.115.372.112.565zm-.436 0a1.186 1.186 0 0 0-.079-.451.941.941 0 0 0-.222-.338.971.971 0 0 0-.351-.213 1.456 1.456 0 0 0-.918 0 .971.971 0 0 0-.351.213.897.897 0 0 0-.224.338 1.322 1.322 0 0 0 0 .903.926.926 0 0 0 .575.549 1.5 1.5 0 0 0 .918 0 .98.98 0 0 0 .351-.211.933.933 0 0 0 .222-.338c.056-.145.082-.298.079-.451zM13.715 30.99l.044.101c.017-.036.031-.069.048-.101a.95.95 0 0 1 .054-.099l1.062-1.677c.021-.029.039-.047.06-.052a.283.283 0 0 1 .087-.009h.314v2.727h-.372v-2.09a.737.737 0 0 1 0-.094l-1.068 1.7c-.014.025-.035.047-.062.062s-.059.023-.091.023h-.06c-.032 0-.064-.007-.091-.022s-.049-.037-.062-.062l-1.099-1.711v2.189h-.359v-2.722h.314a.283.283 0 0 1 .087.009c.026.011.046.03.058.052l1.084 1.678a.662.662 0 0 1 .054.097zM17.71 30.855v1.021h-.415v-2.723h.926c.175-.003.349.017.517.059.134.033.259.091.366.17a.713.713 0 0 1 .208.267.825.825 0 0 1 .071.348.771.771 0 0 1-.301.621 1.062 1.062 0 0 1-.368.18 1.757 1.757 0 0 1-.501.063l-.503-.007zm0-.293h.503a1.2 1.2 0 0 0 .322-.041.71.71 0 0 0 .233-.117.526.526 0 0 0 .191-.409c.005-.076-.009-.151-.042-.222s-.082-.134-.145-.186a.889.889 0 0 0-.559-.146h-.503v1.122zM23.294 31.88h-.328a.158.158 0 0 1-.091-.025.17.17 0 0 1-.054-.063l-.282-.659H21.12l-.293.659a.152.152 0 0 1-.145.088h-.328l1.246-2.727h.432l1.263 2.727zm-2.057-1.013h1.172l-.494-1.11a1.746 1.746 0 0 1-.093-.256l-.048.143a1.404 1.404 0 0 1-.046.116l-.49 1.108zM25.089 29.165a.178.178 0 0 1 .062.049l1.818 2.056v-2.117h.372v2.727h-.208a.204.204 0 0 1-.085-.016.221.221 0 0 1-.066-.05l-1.816-2.054a.737.737 0 0 1 0 .094v2.027h-.372v-2.727h.22a.191.191 0 0 1 .075.013zM30.402 30.795v1.083h-.415v-1.083l-1.149-1.642h.372a.15.15 0 0 1 .089.023.23.23 0 0 1 .056.061l.719 1.059a1.064 1.064 0 0 1 .127.242l.054-.117a.975.975 0 0 1 .071-.125l.708-1.067a.295.295 0 0 1 .054-.058.14.14 0 0 1 .089-.027h.376l-1.151 1.65zM13.51 24.576c.181.02.364.036.548.051 2.803-1.089 5.174-2.873 6.817-5.126s2.485-4.878 2.421-7.546l-3.089-2.684c.628 2.84.334 5.776-.849 8.479s-3.208 5.067-5.849 6.827z"/><path d="m12.407 24.451.083.014c2.822-1.754 4.974-4.203 6.176-7.03s1.402-5.904.571-8.83l-4.4-3.823c1.78 3.142 2.496 6.659 2.066 10.141s-1.989 6.786-4.496 9.528zM27.328 15.106c-.747 2.931-2.563 5.574-5.177 7.537a16.532 16.532 0 0 1-2.459 1.534c2.128-.544 4.085-1.504 5.718-2.809s2.9-2.917 3.703-4.714l-1.784-1.549z"/><path d="m26.628 14.674-2.541-2.207c-.049 2.517-.872 4.976-2.385 7.123s-3.66 3.902-6.217 5.084h.012c.57 0 1.139-.03 1.706-.088 2.39-.848 4.502-2.196 6.147-3.926s2.771-3.785 3.278-5.985zM12.774 3.17 9.743.533c-2.709.91-5.04 2.509-6.686 4.588S.526 9.663.517 12.187c.01 2.789 1.09 5.495 3.07 7.69s4.745 3.754 7.859 4.43c2.78-2.942 4.407-6.579 4.646-10.38s-.924-7.569-3.319-10.757zM33.63 14.268c-.011-3.309-1.529-6.479-4.221-8.818s-6.342-3.658-10.15-3.668a16.144 16.144 0 0 0-5.146.832L32.67 18.737a10.94 10.94 0 0 0 .96-4.469z"/></symbol><symbol id="icon-smartphone" viewBox="0 0 20 32"><path d="M17 0H3C1.346 0 0 1.346 0 3v26c0 1.654 1.346 3 3 3h14c1.654 0 3-1.346 3-3V3c0-1.654-1.346-3-3-3zM3 2h14a1 1 0 0 1 1 1v21H2V3a1 1 0 0 1 1-1zm14 28H3a1 1 0 0 1-1-1v-3h16v3a1 1 0 0 1-1 1z"/><path d="M4.707 27.478c.391.365.391.956 0 1.321s-1.024.365-1.414 0c-.391-.365-.391-.956 0-1.321s1.024-.365 1.414 0z"/></symbol><symbol id="icon-twitter-1" viewBox="0 0 32 32"><path d="M32 6.078c-1.19.522-2.458.868-3.78 1.036a6.523 6.523 0 0 0 2.886-3.626 13.11 13.11 0 0 1-4.16 1.588A6.574 6.574 0 0 0 22.154 3c-3.632 0-6.556 2.948-6.556 6.562 0 .52.044 1.02.152 1.496-5.454-.266-10.28-2.88-13.522-6.862a6.605 6.605 0 0 0-.898 3.316 6.57 6.57 0 0 0 2.914 5.452 6.479 6.479 0 0 1-2.964-.808v.072c0 3.188 2.274 5.836 5.256 6.446a6.548 6.548 0 0 1-1.72.216 5.8 5.8 0 0 1-1.242-.112c.85 2.598 3.262 4.508 6.13 4.57a13.182 13.182 0 0 1-8.134 2.798c-.538 0-1.054-.024-1.57-.09A18.469 18.469 0 0 0 10.064 29c12.072 0 18.672-10 18.672-18.668 0-.29-.01-.57-.024-.848A13.087 13.087 0 0 0 32 6.078z"/></symbol><symbol id="icon-Union-2" viewBox="0 0 37 32"><path d="M15.647 3.335a7.66 7.66 0 0 1 .728.045c1.09.077 2.173.24 3.238.488V1.25a19.274 19.274 0 0 0-3.342-.532A26.68 26.68 0 0 0 14.92.653h-.391a27.2 27.2 0 0 0-6.707.865A27.19 27.19 0 0 0 .705 4.413v25.963a28.886 28.886 0 0 1 6.784-2.643 29.565 29.565 0 0 1 5.694-.874h.076c.321-.016.643-.026.974-.028v-2.66a31.384 31.384 0 0 0-7.401.983c-.895.233-1.76.484-2.572.763l-.925.314V5.988l.396-.191a25.86 25.86 0 0 1 9.615-2.453.575.575 0 0 1 .083 0c.368-.019.738-.028 1.101-.028h.416c.192.005.384.009.576.021h.125zm4.607 2.676c.58.044 1.182.065 1.79.065a28.781 28.781 0 0 0 7.052-.904 29.065 29.065 0 0 0 6.781-2.646v25.5a27.272 27.272 0 0 1-7.119 2.895 27.402 27.402 0 0 1-6.707.863 20.479 20.479 0 0 1-5.088-.6V5.519a20.868 20.868 0 0 0 3.292.493zm12.978.198-.925.312c-.851.286-1.709.542-2.572.77a31.34 31.34 0 0 1-7.686.986 25.87 25.87 0 0 1-1.695-.051l-.738-.049v20.825l.634.056c.588.051 1.194.077 1.804.077a24.585 24.585 0 0 0 6.053-.784 25.42 25.42 0 0 0 4.73-1.7l.396-.191V6.21z"/></symbol><symbol id="icon-Union" viewBox="0 0 27 32"><path d="m4 .475 4.672 4.423L0 4.893v21.458h22.667v-8.204l4.667 4.418V.476H4.001zm18.462 17.153L9.215 5.088h13.247v12.54zm-4.113 5.584H3.587V8.78H4.63v13.454h13.719v.977zM7.073 29.208h.456l-.794 1.497v.872h-.413v-.872l-.796-1.497h.457l.545 1.123.545-1.123zm.685 2.37.192-.552h.918l.194.552h.43l-.897-2.37h-.369l-.895 2.37h.428zm.651-1.867.343.983h-.687l.343-.983zm2.171.926c.06-.092.177-.201.353-.327a1.538 1.538 0 0 1-.194-.296.58.58 0 0 1-.054-.236c0-.186.056-.332.169-.439a.629.629 0 0 1 .456-.163c.173 0 .314.051.423.153a.487.487 0 0 1 .166.376.52.52 0 0 1-.075.273.894.894 0 0 1-.246.247l-.161.117.457.54a.947.947 0 0 0 .099-.435h.343c0 .292-.068.531-.205.718l.348.412H12l-.133-.158c-.169.127-.371.19-.605.19s-.422-.062-.563-.186a.622.622 0 0 1-.21-.487c0-.11.03-.21.09-.301zm1.069.524-.518-.61-.05.036c-.13.099-.195.212-.195.339 0 .11.035.199.106.267s.165.103.283.103a.603.603 0 0 0 .374-.133zm-.424-1.05.181-.124.05-.041a.294.294 0 0 0 .101-.23.207.207 0 0 0-.07-.158.25.25 0 0 0-.177-.067c-.077 0-.138.026-.184.078s-.068.118-.068.197c0 .091.056.206.168.343zm3.857 1.288c-.163.141-.379.212-.649.212a.943.943 0 0 1-.5-.133c-.143-.09-.254-.218-.332-.383s-.119-.356-.122-.575v-.221c0-.224.04-.42.119-.591s.193-.302.34-.394a.957.957 0 0 1 .514-.138c.262 0 .472.071.632.213s.252.343.278.602h-.41c-.02-.17-.069-.293-.15-.368-.079-.076-.196-.114-.35-.114a.482.482 0 0 0-.413.197c-.095.13-.144.322-.146.575v.21c0 .256.046.451.137.586s.227.202.404.202c.162 0 .283-.036.365-.109s.133-.194.155-.363h.41c-.024.253-.117.45-.28.592zm2.42-.332a.914.914 0 0 1-.345.404.95.95 0 0 1-.514.14.957.957 0 0 1-.514-.14.927.927 0 0 1-.348-.402 1.424 1.424 0 0 1-.124-.601v-.133c0-.231.041-.435.122-.612a.918.918 0 0 1 .347-.405c.15-.094.321-.142.514-.142s.364.047.513.14c.15.092.265.226.347.4.081.174.123.376.124.607v.132c0 .232-.04.436-.12.612zm-.441-1.34a.485.485 0 0 0-.422-.21.487.487 0 0 0-.418.21c-.1.139-.151.336-.153.591v.137c0 .26.05.462.151.604a.492.492 0 0 0 .423.213.483.483 0 0 0 .42-.208c.099-.139.148-.342.148-.609v-.124c0-.263-.05-.464-.15-.604z"/></symbol></defs></svg>